<?xml version="1.0" encoding="UTF-8"?>
<!-- Generator: visioncortex VTracer 0.6.12 -->
<svg version="1.1" xmlns="http://www.w3.org/2000/svg" width="5184" height="3456">
<path d="M0 0 C-5.047348435453273 2.6781848841180818 -10.182624658349937 4.914922061167317 -15.5 7 C-20.112665042018307 8.810068728979331 -24.597961853934635 10.71168031774505 -28.9921875 13.00390625 C-36.133762666218445 16.546905602890547 -43.65126116046076 19.265614905106986 -51.15625 21.921875 C-54.133040306239764 23.05043835786023 -56.982574997731604 24.35815315552304 -59.875 25.6875 C-67.38401568228608 28.951195084256142 -75.13602618226139 31.418416594051905 -82.9375 33.875 C-83.57741882324217 34.0799911499023 -84.21733764648434 34.2849822998046 -84.87664794921875 34.496185302734375 C-86.73586971738405 35.08930377804086 -88.60031579551651 35.66596652162525 -90.46484375 36.2421875 C-91.55402099609375 36.58104980468761 -92.64319824218751 36.91991210937499 -93.765380859375 37.26904296875 C-97.27682075974099 38.06255576682497 -100.41100329848916 38.098384062790274 -104 38 C-106.546875 38.33203125 -106.546875 38.33203125 -108.75 38.8125 C-109.48734375000004 38.963320312499945 -110.22468749999996 39.11414062499989 -110.984375 39.26953125 C-113.28757663222672 40.1042186632294 -114.41114690737311 41.164774117693696 -116 43 C-116.65999999999997 42.33999999999992 -117.32 41.680000000000064 -118 41 C-120.6092888416581 40.772462920942644 -123.07850192373172 40.67573715925937 -125.6875 40.6875 C-126.035224609375 40.679443359375 -126.035224609375 40.679443359375 -127.794921875 40.638671875 C-132.08730022367388 40.63466405207873 -134.94846900427586 41.31236527055421 -138.866943359375 43.191162109375 C-143.96233773552865 45.12329459972602 -149.5773818012848 45.59793867304461 -154.9375 46.4375 C-162.94797895836416 47.744251191661306 -170.85114917836472 49.06185018198562 -178.6875 51.1875 C-184.94143525514892 52.87720694191853 -191.00220866963406 53.625002124302455 -197.427978515625 54.20947265625 C-202.2095335167793 54.683753314387104 -206.5222573397283 55.60322136111836 -211.125 57.0625 C-217.6935382163354 59.13435200748904 -223.76786719970528 59.58926851865385 -230.6015625 59.82421875 C-233.32626749150631 59.96515176680214 -235.4019651286348 60.3371269052484 -238 61 C-239.91561254264985 61.066885912802036 -241.83335592384338 61.08531719138273 -243.75 61.0625 C-244.73484374999998 61.05347656250001 -245.71968750000002 61.04445312500002 -246.734375 61.03515625 C-247.48203124999998 61.02355468750011 -248.2296875 61.01195312499999 -249 61 C-248 59 -248 59 -246.09375 58.21875 C-239.72470511245723 56.4538339468254 -233.43212902124253 55.51160482407818 -226.874755859375 54.837646484375 C-221.34904287375576 54.23860283026397 -215.9927555186731 53.234929138897996 -210.5625 52.0625 C-201.49847016526417 50.11905428409841 -192.42030137186032 49.010144065338864 -183.195556640625 48.127197265625 C-177.09480924010495 47.50757897955782 -171.46352681763858 46.426778512078954 -165.579345703125 44.706787109375 C-161.72065376741182 43.649436124624344 -157.833232648543 43.1037894867718 -153.875 42.5625 C-147.61677530733243 41.65471901967658 -141.5567436612152 40.46285058000626 -135.4375 38.875 C-129.6107022030476 37.382341039439325 -124.13287194297249 36.7223879671983 -118.125 36.5625 C-109.05556669449118 36.29749048890062 -100.88425186116933 34.192466083877434 -92.21484375 31.6376953125 C-90.16168608596257 31.046552475367434 -88.10482530696692 30.50639228571754 -86.03125 29.9921875 C-76.73082526565247 27.667081316413032 -67.89329332375132 24.525358289605947 -59 21 C-58.214316406249964 20.690141601562573 -57.42863281250004 20.380283203124918 -56.619140625 20.06103515625 C-43.8262141578582 15.007879607270525 -31.028089349439256 9.919703645730351 -18.41015625 4.44140625 C-15.218008855207813 3.092148072819782 -12.026920129185442 1.8759161469508854 -8.75 0.75 C-8.242109374999927 0.5721093750000819 -8.242109374999927 0.5721093750000819 -5.671875 -0.328125 C-3 -1 -3 -1 0 0 Z " fill="#000000" transform="translate(584,1792)"/>
</svg>
